{
  "asset": {
    "generator": "Khronos glTF Blender I/O v1.0.5",
    "version": "2.0"
  },
  "scene": 0,
  "scenes": [
    {
      "name": "Scene",
      "nodes": [
        0,
        1,
        2
      ]
    }
  ],
  "nodes": [
    {
      "name": "Light",
      "rotation": [
        0.16907575726509094,
        0.7558803558349609,
        -0.27217137813568115,
        0.570947527885437
      ],
      "translation": [
        4.076245307922363,
        5.903861999511719,
        -1.0054539442062378
      ]
    },
    {
      "name": "Camera",
      "rotation": [
        0.483536034822464,
        0.33687159419059753,
        -0.20870360732078552,
        0.7804827094078064
      ],
      "translation": [
        7.358891487121582,
        4.958309173583984,
        6.925790786743164
      ]
    },
    {
      "mesh": 0,
      "name": "jxbwg",
      "rotation": [
        0.7071068286895752,
        0,
        0,
        0.7071067094802856
      ]
    }
  ],
  "materials": [
    {
      "doubleSided": true,
      "name": "7_Default_79",
      "pbrMetallicRoughness": {
        "baseColorFactor": [
          0.5879999995231628,
          0.5879999995231628,
          0.5879999995231628,
          1
        ],
        "metallicFactor": 0,
        "roughnessFactor": 0.8945907354354858
      }
    }
  ],
  "meshes": [
    {
      "name": "jxbwg",
      "primitives": [
        {
          "attributes": {
            "POSITION": 0,
            "NORMAL": 1,
            "TEXCOORD_0": 2
          },
          "indices": 3,
          "material": 0
        },
        {
          "attributes": {
            "POSITION": 4,
            "NORMAL": 5,
            "TEXCOORD_0": 6
          },
          "indices": 7,
          "material": 0
        },
        {
          "attributes": {
            "POSITION": 8,
            "NORMAL": 9,
            "TEXCOORD_0": 10
          },
          "indices": 11,
          "material": 0
        }
      ]
    }
  ],
  "accessors": [
    {
      "bufferView": 0,
      "componentType": 5126,
      "count": 65533,
      "max": [
        155.15379333496094,
        89.65370178222656,
        1.548799991607666
      ],
      "min": [
        -0.22210000455379486,
        -105.95169830322266,
        -44.668800354003906
      ],
      "type": "VEC3"
    },
    {
      "bufferView": 1,
      "componentType": 5126,
      "count": 65533,
      "type": "VEC3"
    },
    {
      "bufferView": 2,
      "componentType": 5126,
      "count": 65533,
      "type": "VEC2"
    },
    {
      "bufferView": 3,
      "componentType": 5123,
      "count": 97554,
      "type": "SCALAR"
    },
    {
      "bufferView": 4,
      "componentType": 5126,
      "count": 10732,
      "max": [
        131.981201171875,
        58.41939926147461,
        1.548799991607666
      ],
      "min": [
        88.25569915771484,
        -53.400901794433594,
        -37.559200286865234
      ],
      "type": "VEC3"
    },
    {
      "bufferView": 5,
      "componentType": 5126,
      "count": 10732,
      "type": "VEC3"
    },
    {
      "bufferView": 6,
      "componentType": 5126,
      "count": 10732,
      "type": "VEC2"
    },
    {
      "bufferView": 7,
      "componentType": 5123,
      "count": 16110,
      "type": "SCALAR"
    },
    {
      "bufferView": 8,
      "componentType": 5126,
      "count": 4,
      "max": [
        97.5145034790039,
        49.035301208496094,
        -8.98169994354248
      ],
      "min": [
        97.48429870605469,
        49.020599365234375,
        -9.060400009155273
      ],
      "type": "VEC3"
    },
    {
      "bufferView": 9,
      "componentType": 5126,
      "count": 4,
      "type": "VEC3"
    },
    {
      "bufferView": 10,
      "componentType": 5126,
      "count": 4,
      "type": "VEC2"
    },
    {
      "bufferView": 11,
      "componentType": 5123,
      "count": 6,
      "type": "SCALAR"
    }
  ],
  "bufferViews": [
    {
      "buffer": 0,
      "byteLength": 786396,
      "byteOffset": 0
    },
    {
      "buffer": 0,
      "byteLength": 786396,
      "byteOffset": 786396
    },
    {
      "buffer": 0,
      "byteLength": 524264,
      "byteOffset": 1572792
    },
    {
      "buffer": 0,
      "byteLength": 195108,
      "byteOffset": 2097056
    },
    {
      "buffer": 0,
      "byteLength": 128784,
      "byteOffset": 2292164
    },
    {
      "buffer": 0,
      "byteLength": 128784,
      "byteOffset": 2420948
    },
    {
      "buffer": 0,
      "byteLength": 85856,
      "byteOffset": 2549732
    },
    {
      "buffer": 0,
      "byteLength": 32220,
      "byteOffset": 2635588
    },
    {
      "buffer": 0,
      "byteLength": 48,
      "byteOffset": 2667808
    },
    {
      "buffer": 0,
      "byteLength": 48,
      "byteOffset": 2667856
    },
    {
      "buffer": 0,
      "byteLength": 32,
      "byteOffset": 2667904
    },
    {
      "buffer": 0,
      "byteLength": 12,
      "byteOffset": 2667936
    }
  ],
  "buffers": [
    {
      "uri": "jiangxi_data.bin",
      "byteLength": 2667948
    }
  ]
}