{
  "accessors": [
    {
      "bufferView": 2,
      "componentType": 5126,
      "count": 24950,
      "max": [
        1.1805936098098755,
        0.38481897115707397,
        1.5530112981796265
      ],
      "min": [
        -0.93097376823425293,
        -0.30118286609649658,
        -0.0012911299709230661
      ],
      "type": "VEC3"
    },
    {
      "bufferView": 2,
      "byteOffset": 299400,
      "componentType": 5126,
      "count": 24950,
      "max": [
        0.9999995231628418,
        0.99995148181915283,
        0.99993586540222168
      ],
      "min": [
        -0.99984610080718994,
        -0.99997043609619141,
        -0.99995732307434082
      ],
      "type": "VEC3"
    },
    {
      "bufferView": 3,
      "componentType": 5126,
      "count": 24950,
      "max": [
        0.99968254566192627,
        0.99998819828033447,
        0.99997174739837646,
        1
      ],
      "min": [
        -0.99942988157272339,
        -0.99996298551559448,
        -0.99998843669891357,
        -1
      ],
      "type": "VEC4"
    },
    {
      "bufferView": 1,
      "componentType": 5126,
      "count": 24950,
      "max": [
        0.99798637628555298,
        0.99936950206756592
      ],
      "min": [
        0.00063057808438315988,
        0.00063057808438315988
      ],
      "type": "VEC2"
    },
    {
      "bufferView": 0,
      "componentType": 5125,
      "count": 131673,
      "max": [
        24949
      ],
      "min": [
        0
      ],
      "type": "SCALAR"
    }
  ],
  "asset": {
    "extras": {
      "author": "Loïc Norgeot (https://sketchfab.com/norgeotloic)",
      "license": "CC-BY-4.0 (http://creativecommons.org/licenses/by/4.0/)",
      "source": "https://sketchfab.com/models/609840130f004e94be201cfce0e6cbd9",
      "title": "Horse statuette"
    },
    "generator": "Sketchfab-3.22.13",
    "version": "2.0"
  },
  "bufferViews": [
    {
      "buffer": 0,
      "byteLength": 526692,
      "byteOffset": 0,
      "name": "floatBufferViews",
      "target": 34963
    },
    {
      "buffer": 0,
      "byteLength": 199600,
      "byteOffset": 526692,
      "byteStride": 8,
      "name": "floatBufferViews",
      "target": 34962
    },
    {
      "buffer": 0,
      "byteLength": 598800,
      "byteOffset": 726292,
      "byteStride": 12,
      "name": "floatBufferViews",
      "target": 34962
    },
    {
      "buffer": 0,
      "byteLength": 399200,
      "byteOffset": 1325092,
      "byteStride": 16,
      "name": "floatBufferViews",
      "target": 34962
    }
  ],
  "buffers": [
    {
      "byteLength": 1724292,
      "uri": "scene.bin"
    }
  ],
  "images": [
    {
      "uri": "textures/bake_target_baseColor.jpg"
    },
    {
      "uri": "textures/bake_target_normal.jpg"
    },
    {
      "uri": "textures/bake_target_metallicRoughness.png"
    }
  ],
  "materials": [
    {
      "doubleSided": true,
      "emissiveFactor": [
        0,
        0,
        0
      ],
      "name": "bake_target",
      "normalTexture": {
        "index": 1,
        "scale": 1,
        "texCoord": 0
      },
      "pbrMetallicRoughness": {
        "baseColorFactor": [
          1,
          1,
          1,
          1
        ],
        "baseColorTexture": {
          "index": 0,
          "texCoord": 0
        },
        "metallicFactor": 0,
        "metallicRoughnessTexture": {
          "index": 2,
          "texCoord": 0
        },
        "roughnessFactor": 1
      }
    }
  ],
  "meshes": [
    {
      "name": "horse.o.002_bake_target_0",
      "primitives": [
        {
          "attributes": {
            "NORMAL": 1,
            "POSITION": 0,
            "TANGENT": 2,
            "TEXCOORD_0": 3
          },
          "indices": 4,
          "material": 0,
          "mode": 4
        }
      ]
    }
  ],
  "nodes": [
    {
      "children": [
        1
      ],
      "name": "RootNode (gltf orientation matrix)",
      "rotation": [
        -0.70710678118654746,
        -0,
        -0,
        0.70710678118654757
      ]
    },
    {
      "children": [
        2
      ],
      "name": "RootNode (model correction matrix)"
    },
    {
      "children": [
        3
      ],
      "matrix": [
        1,
        0,
        0,
        0,
        0,
        0,
        1,
        0,
        0,
        -1,
        0,
        0,
        0,
        0,
        0,
        1
      ],
      "name": "70a5fcb4818848ecb921fa5969cb7960.fbx"
    },
    {
      "children": [
        4
      ],
      "name": "RootNode"
    },
    {
      "children": [
        5
      ],
      "matrix": [
        100,
        0,
        0,
        0,
        0,
        -4.3711390063094768e-06,
        -99.999999999999901,
        0,
        0,
        99.999999999999901,
        -4.3711390063094768e-06,
        0,
        0,
        0,
        0,
        1
      ],
      "name": "horse.o.002"
    },
    {
      "mesh": 0,
      "name": "horse.o.002_bake_target_0"
    }
  ],
  "samplers": [
    {
      "magFilter": 9729,
      "minFilter": 9987,
      "wrapS": 10497,
      "wrapT": 10497
    }
  ],
  "scene": 0,
  "scenes": [
    {
      "name": "OSG_Scene",
      "nodes": [
        0
      ]
    }
  ],
  "textures": [
    {
      "sampler": 0,
      "source": 0
    },
    {
      "sampler": 0,
      "source": 1
    },
    {
      "sampler": 0,
      "source": 2
    }
  ]
}

